<svg xmlns="http://www.w3.org/2000/svg" width="90" height="29" viewBox="0 0 90 29"><g fill="none" fill-rule="evenodd"><path fill="#39506A" d="M12.38 6.434l.012.029-.012-.029m.064.146l.013.033-.013-.033"/><path d="M47.932 0h-4.713v4.725h4.713V0z"/><path fill="#39506A" d="M43.219 2.362A2.36 2.36 0 0 1 45.575 0a2.36 2.36 0 0 1 2.357 2.362 2.36 2.36 0 0 1-2.357 2.363 2.36 2.36 0 0 1-2.356-2.363M11.59 21.692c.239-1.35.82-2.536.82-2.536-1.814.306-5.597 1.237-5.46 2.32 0 0 .706-.395 1.327-.53.621-.137 1.107-.058 1.107-.058l-1.3.385c-1.123.47-2.284.909-2.259 2.332.02 1.105.408 1.51 1.381 1.937 0 0-.027-.406.58-.59.315-.076 1.202-.368 3.746-1.009 0 0-.182-.9.058-2.25"/><path fill="#39506A" d="M77.662 21.057c-.493.625-.93 1.198-1.522 1.912-.85.832-1.304 1.186-2.142 1.617-.787.403-1.542.227-1.54.227 0 .001-.214-.492.46-1.183a5.33 5.33 0 0 0 .308-.264c1.294-1.076 2.71-2.028 3.545-2.48.084-.046.167-.089.25-.131h-.001l.032-.016.117-.058c1.982-.99 3.64-1.177 3.64-1.177-1.564.302-3.141 1.548-3.147 1.553zM69.325 8.732c-2.12 4.28-5.398 7.463-5.398 7.463-.04-2.372.765-3.721 2.074-5.54.937-1.3 3.73-2.651 3.73-2.651-.137.162-.241.395-.406.728zm-15.238 8.633c.13.083.249.156.368.227-1.62-.106-3.291-.203-4.82-.27 0 0 4.573-6.42 5.91-10.06.002.002-1.87 5.134-2.387 6.342a62.029 62.029 0 0 1-.913 2.037s.938 1.151 1.842 1.724zm-11.345-.212c.47-.203.997-.566 1.651-1.116.068-.057.195-.146.197-.146 1.07-.95 2.352-3.204 2.352-3.204s.04 1.333-1.044 2.956c0 0 .141.45.996 1.336.104.107.213.18.322.263-1.54-.047-3.03-.076-4.474-.089zm-11.243-3.658c1.36-2.486 4.086-7.023 4.53-7.366l.206-.295s.646 1.302-.442 4.298c-1.088 2.995-4.615 3.862-4.615 3.862l.321-.499zm56.219 4.645c-.007-.886-.634-1.18-.634-1.18-1.16-.493-2.818.18-2.819.18-.099.026 1.109-1.76 1.313-2.167v.001c.531-1.213 4.082-6.656 4.08-6.657.001 0-1.015-1.467-1.455-1.877a5.253 5.253 0 0 0-.808-.645c-1.698-1.06-1.919-.77-2.506.775a49.58 49.58 0 0 1-.745 1.63c-1.73 3.367-5.332 8.037-5.851 8.051 0 0-.116-.54.021-1.206.413-2.005 1.478-3.35 2.434-5.321.858-1.772.915-3.143-.186-4.11 0 0-.335-.343-.525-.461-.946-.59-2.242-.745-2.241-.746.001 0 .407.024.128.768-.102.274-.552 1.697-.706 2.084-.966 2.436-2.439 4.594-3.632 6.879-.386.74-1.508 2.183-2.493 2.78.089-1.042.454-2.104 1.428-3.63.146-.228.3-.457.434-.669.512-.81.705-1.109.72-1.101 0 0-.205-.97-1.37-2.122-.33-.326-1.006-1.102-1.653-1.311l.055-.028a4.47 4.47 0 0 1 1.5-.223 3.274 3.274 0 0 1 .503.06s-.065-.659-.38-1.196a2.132 2.132 0 0 0-.187-.35c-1.346-2.036-2.796-1.923-3.805-1.742-2.902.52-4.488 2.792-4.488 2.793-1.045 1.137-2.756 3.321-3.664 6.194-.354 1.118-.643 2.312.293 3.308.545.597.983.98 1.46 1.302a228.607 228.607 0 0 0-5.122-.444c.041-.196.116-.418.262-.667.091-.158 1.756-3.986 3.428-6.915 1.672-2.93 3.328-4.515 4.71-5.424.493-.325.768-.343.768-.344-.387-.314-.68-.448-1.7-.418-1.258.038-1.586.698-2.089 1.334-.76.964-1.42 1.941-2.29 3.165 0 .001-.002.002 0 .002-.435.725-.866 1.45-1.297 2.177l-.012.02c-.02.038-.094.174-.205.345.002 0-1.526 3.057-1.941 4.077 0 0 .186-2.82 2.806-7.848.162-.31 1.074-1.708 1.074-1.708 0-.002-.77-.69-1.668-1.259-.898-.568-2.026-.806-2.092-.815-.712-.093-.875.69-1.393 1.79-.745 1.584-.744 1.912-1.258 2.926-.56 1.103-.733 1.54-1.54 2.862-.26.425-2.002 3.216-2.003 3.215-.001-.001 1.303-3.177 2.148-5.26.845-2.082 1.223-3.813 1.223-3.813s-.314-.265-1.282-.782c-1.2-.643-2.173-.787-2.309-.81-.608-.105-.772.049-.97.965-.248 1.155-.148 1.3-1.06 3.995-.91 2.695-2.645 4.77-2.645 4.77-.417.465-1.299 1.13-1.805 1.499-.228.166.448-2.436.903-3.962.455-1.526 1.844-4.045 1.844-4.045s-.16-.422-.951-.907c-.534-.329-.706-.456-1.288-.653 0 0-.216-.081-.612-.201-.396-.118-.97-.18-1.185-.097-.287.112-.429.351-.591.982-.316 1.231-.32 2.725-1.018 4.495s-1.198 2.686-1.703 3.343c-.483.558-.897 1.083-.897 1.083s.742.849 1.17 1.182c.645.504 1.164.876 1.638 1.087-4.24.001-8.068.142-11.52.35a20.442 20.442 0 0 1 1.475-2.965c.59 2.26 2.169 2.803 4.263 1.563 1.644-.973 2.756-2.242 3.679-3.902 1.593-2.452 2.03-4.742 1.45-6.519 0 0-.162-.37-.275-.508-1.505-1.86-3.489-1.324-4.767-.086-.734.71-1.187 1.634-1.746 2.483-.35.784-1.764 3.932-2.38 4.865-.69 1.05 1.896-3.878 1.781-5.725-.075-1.276-1.203-2.353-2.944-2.47-.769-.051-1.528.173-1.529.173 0 0 .406.273.506 1.321.122 1.286.231 2.133-.455 4.333-.506 1.621-1.41 3.52-2 4.675-.485.96-1.023 1.987-1.326 3.021-.006.016-.008.032-.013.046h-.002c-.045.14-.236.792-.39 1.572-.196.978-.341 2.065-.217 2.594.316 2.11 2.571 2.35 2.756 2.384.303.057 1.069.004 1.068.003 0 .002-.078-.071-.106-.494a12.61 12.61 0 0 1 .198-3.003c3.72-.419 6.623-.683 11.134-.797 19.073-.479 26.799.472 30.338 1.167 0 0-.764-1.855-5.874-2.778.592-.316 1.687-.71 3.307-3.487 0 0 1.24-2.734 2.256-4.42.003 0-2.518 6.218-2.518 6.219.161.213.392.539.553.753 1.39 1.347 2.158 1.618 3.712.836 0 .001.72-.306 1.815-1.686.515-.648 1.26-1.597 1.82-2.533-.458.862-1.309 2.724-1.31 2.724 0 0 .34 1.053 1.239 1.64.898.585 1.852.679 3.275-.34 1.167-.836 3.715-4.303 5.224-7.054 0 0-2.437 4.835-4.347 7.432 0 .001-2.125 1.078-4.042 2.07-2.065 1.068-3.773 3.002-3.773 3.002-1.28 1.466-.396 3.147.197 3.738 4.325 4.317 8.923-4.024 8.918-4.024.78-1.212 1.558-2.424 2.336-3.637l.397-.53c.857-.212 2.208.042 3.043.72.32.26.291.967.292.966 1.703-.802 1.185-2.328.92-2.576-.267-.249-.814-.49-.814-.49s.557-.136 1.127.369z"/><path fill="#39506A" d="M9.968 8.833c-2.914 6.064-4.943 7.195-4.943 7.195-.194-1.735.303-3.773 1.626-5.172C7.7 9.75 9.068 9.05 10.426 8.183c-.13.153-.311.345-.458.65m13.86-2.711c.58.84.94 1.971-.234 4.644-1.175 2.672-4.744 3.827-4.744 3.827 1.38-2.558 3.553-6.504 4.978-8.471m-5.2 8.831c.019 1.191.477 1.81 1.099 2.043.796.299 2.012.168 3.58-.94 2.081-1.465 3.256-3.445 4.042-5.618.485-1.34.846-2.748.428-4.114-.308-1.008-1.091-1.736-2.387-1.937-1.21-.187-1.973.444-2.672 1.147-.813.814-1.44 1.94-1.924 2.938-.614 1.299-1.784 3.713-2.216 4.232-.731.876 2.114-3.71 1.67-6.047-.489-1.136-1.76-1.695-3.276-1.591-.318.02-1.285.211-1.036.264.249.052.298.628.31.75.179 1.834-.204 3.605-.772 5.316-.664 2-.879 2.276-2.405 4.063v.002a.6.6 0 0 1-.237.12l.014-.23c-.037-.952.406-2.686.714-3.441.306-.757.731-1.778.731-1.778-.142-.244-.246-.625-1.505-1.356-.622-.362-1.56-.851-1.87-.872.362-.166 1.033-.351 1.782-.385 0 0-.1-.5-.241-.906l-.013-.033a1.142 1.142 0 0 0-.052-.117l-.013-.029a4.218 4.218 0 0 0-.743-1.094c-1.123-1.215-3.374-.443-4.161-.113 0 0-4.077 1.864-7.059 5.052 0 0-.712.854-.273 1.182.65.483 1.235-.519 1.333-.66.08-.113 1.248-2.043 3.32-3.626a5.31 5.31 0 0 0-.209.197c-.435.442-.765.77-1.048 1.178-1.456 2.104-2.825 4.188-2.515 6.507a2.9 2.9 0 0 0 .273 1.108c.663 1.33 1.9 1.978 3.738 2.03.859.026 1.47-.267 1.912-.66.545-.488.83-1.131 1-1.516l.602-1.36c.157-.378 1.055-2.754 1.557-4.132-.366 1.075-1.189 5.36-1.298 5.791l.416.343c2.025 1.283 2.69 1.598 4.092.325.374-.38 1.128-1.581 1.128-1.581s-.194.66-.97 1.938c0 0-.115.159-.257.476a13.54 13.54 0 0 0-.208.545c-.065.19-.213.687-.22.688-.13.385-.727 3.239-.14 4.604.268.62 1.363 1.288 2.27 1.553.925.27 1.3.152 1.482.12 0 0-.122-.202-.174-.862a13.939 13.939 0 0 1-.02-1.629c2.22-.473 4.285-.883 7.26-1.32 0 0 .033-.31.466-1.735.431-1.417.975-2.014.975-2.014-2.956.246-5.64.578-7.99.825.184-.588.4-1.139.653-1.623a82.17 82.17 0 0 1 1.057-2.018"/></g></svg>